<?xml version="1.0" standalone="no"?>
<!DOCTYPE svg PUBLIC "-//W3C//DTD SVG 20010904//EN"
 "http://www.w3.org/TR/2001/REC-SVG-20010904/DTD/svg10.dtd">
<svg version="1.0" xmlns="http://www.w3.org/2000/svg"
 width="260.000000pt" height="260.000000pt" viewBox="0 0 260.000000 260.000000"
 preserveAspectRatio="xMidYMid meet">
<metadata>
Created by potrace 1.14, written by Peter Selinger 2001-2017
</metadata>
<g transform="translate(0.000000,260.000000) scale(0.100000,-0.100000)"
fill="#000000" stroke="none">
<path d="M285 1300 l0 -430 271 0 c209 0 273 3 276 13 2 6 3 41 3 77 l0 65
-177 3 -178 2 0 100 0 100 38 1 c20 0 91 0 158 1 l121 0 0 79 1 79 -159 0
-159 0 0 90 0 90 168 0 169 0 0 80 1 80 -266 0 -267 0 0 -430z"/>
<path d="M921 1708 c6 -13 29 -52 49 -88 37 -64 60 -104 101 -177 11 -21 34
-60 49 -88 l28 -50 -123 -215 -123 -215 106 -3 c76 -2 109 1 117 10 12 14 113
234 129 282 5 13 28 -25 84 -138 l77 -156 113 0 c62 0 111 3 109 8 -2 4 -59
103 -127 220 l-122 213 47 81 c26 45 56 98 67 117 18 32 52 91 110 189 l20 32
-115 0 -114 0 -15 -37 c-9 -21 -38 -89 -66 -150 l-49 -113 -20 48 c-11 26 -42
93 -69 149 l-49 103 -113 0 -113 0 12 -22z"/>
<path d="M1755 1300 l0 -430 271 0 c209 0 273 3 276 13 3 6 4 41 3 77 l-1 65
-177 3 -177 2 0 100 0 100 63 1 c34 0 105 1 157 2 l95 2 3 78 3 77 -161 0
-160 0 0 90 0 90 169 0 168 0 1 80 1 80 -267 0 -267 0 0 -430z"/>
</g>
</svg>
